<svg id="visual" viewBox="0 0 900 600" width="900" height="600" xmlns="http://www.w3.org/2000/svg" xmlns:xlink="http://www.w3.org/1999/xlink" version="1.1"><rect x="0" y="0" width="900" height="600" fill="#000000"></rect><defs><linearGradient id="grad1_0" x1="33.3%" y1="0%" x2="100%" y2="100%"><stop offset="20%" stop-color="#54aad1" stop-opacity="1"></stop><stop offset="80%" stop-color="#54aad1" stop-opacity="1"></stop></linearGradient></defs><defs><linearGradient id="grad1_1" x1="33.3%" y1="0%" x2="100%" y2="100%"><stop offset="20%" stop-color="#54aad1" stop-opacity="1"></stop><stop offset="80%" stop-color="#000000" stop-opacity="1"></stop></linearGradient></defs><defs><linearGradient id="grad2_0" x1="0%" y1="0%" x2="66.7%" y2="100%"><stop offset="20%" stop-color="#54aad1" stop-opacity="1"></stop><stop offset="80%" stop-color="#54aad1" stop-opacity="1"></stop></linearGradient></defs><defs><linearGradient id="grad2_1" x1="0%" y1="0%" x2="66.7%" y2="100%"><stop offset="20%" stop-color="#000000" stop-opacity="1"></stop><stop offset="80%" stop-color="#54aad1" stop-opacity="1"></stop></linearGradient></defs><g transform="translate(900, 0)"><path d="M0 432.7C-70.6 413.3 -141.2 393.9 -208 360.3C-274.8 326.6 -337.9 278.8 -374.7 216.3C-411.5 153.9 -422.1 77 -432.7 0L0 0Z" fill="#005679"></path><path d="M0 216.3C-35.3 206.6 -70.6 196.9 -104 180.1C-137.4 163.3 -168.9 139.4 -187.3 108.2C-205.8 77 -211 38.5 -216.3 0L0 0Z" fill="#54aad1"></path></g><g transform="translate(0, 600)"><path d="M0 -432.7C71.4 -414.7 142.8 -396.7 209.5 -362.9C276.2 -329.1 338.3 -279.4 374.7 -216.3C411.1 -153.2 421.9 -76.6 432.7 0L0 0Z" fill="#005679"></path><path d="M0 -216.3C35.7 -207.3 71.4 -198.3 104.7 -181.4C138.1 -164.5 169.1 -139.7 187.3 -108.2C205.6 -76.6 210.9 -38.3 216.3 0L0 0Z" fill="#54aad1"></path></g></svg>