<svg id="visual" viewBox="0 0 900 600" width="900" height="600"
  xmlns="http://www.w3.org/2000/svg" version="1.1">
  <path d="M232 600L279 600L279 574L158 574L158 548L129 548L129 522L263 522L263 496L259 496L259 470L248 470L248 443L204 443L204 417L138 417L138 391L201 391L201 365L210 365L210 339L129 339L129 313L175 313L175 287L111 287L111 261L123 261L123 235L132 235L132 209L209 209L209 183L206 183L206 157L100 157L100 130L203 130L203 104L145 104L145 78L227 78L227 52L220 52L220 26L167 26L167 0L900 0L900 26L900 52L900 78L900 104L900 130L900 157L900 183L900 209L900 235L900 261L900 287L900 313L900 339L900 365L900 391L900 417L900 443L900 470L900 496L900 522L900 548L900 574L900 600Z" fill="#FF000010"/>
  <path d="M174 600L207 600L207 574L218 574L218 548L242 548L242 522L183 522L183 496L305 496L305 470L169 470L169 443L334 443L334 417L333 417L333 391L190 391L190 365L286 365L286 339L187 339L187 313L248 313L248 287L246 287L246 261L198 261L198 235L277 235L277 209L185 209L185 183L319 183L319 157L265 157L265 130L251 130L251 104L242 104L242 78L258 78L258 52L339 52L339 26L332 26L332 0L900 0L900 26L900 52L900 78L900 104L900 130L900 157L900 183L900 209L900 235L900 261L900 287L900 313L900 339L900 365L900 391L900 417L900 443L900 470L900 496L900 522L900 548L900 574L900 600Z" fill="#E6271710"/>
  <path d="M323 600L358 600L358 574L267 574L267 548L381 548L381 522L307 522L307 496L351 496L351 470L262 470L262 443L363 443L363 417L397 417L397 391L272 391L272 365L295 365L295 339L294 339L294 313L245 313L245 287L398 287L398 261L258 261L258 235L272 235L272 209L331 209L331 183L298 183L298 157L262 157L262 130L363 130L363 104L300 104L300 78L390 78L390 52L254 52L254 26L365 26L365 0L900 0L900 26L900 52L900 78L900 104L900 130L900 157L900 183L900 209L900 235L900 261L900 287L900 313L900 339L900 365L900 391L900 417L900 443L900 470L900 496L900 522L900 548L900 574L900 600Z" fill="#CC4E3310"/>
  <path d="M444 600L328 600L328 574L377 574L377 548L409 548L409 522L332 522L332 496L335 496L335 470L439 470L439 443L402 443L402 417L438 417L438 391L455 391L455 365L437 365L437 339L449 339L449 313L327 313L327 287L408 287L408 261L446 261L446 235L451 235L451 209L336 209L336 183L424 183L424 157L368 157L368 130L424 130L424 104L403 104L403 78L395 78L395 52L391 52L391 26L341 26L341 0L900 0L900 26L900 52L900 78L900 104L900 130L900 157L900 183L900 209L900 235L900 261L900 287L900 313L900 339L900 365L900 391L900 417L900 443L900 470L900 496L900 522L900 548L900 574L900 600Z" fill="#B2754C10"/>
  <path d="M425 600L507 600L507 574L484 574L484 548L485 548L485 522L508 522L508 496L441 496L441 470L397 470L397 443L511 443L511 417L373 417L373 391L451 391L451 365L484 365L484 339L381 339L381 313L379 313L379 287L388 287L388 261L412 261L412 235L462 235L462 209L452 209L452 183L373 183L373 157L514 157L514 130L389 130L389 104L392 104L392 78L377 78L377 52L395 52L395 26L455 26L455 0L900 0L900 26L900 52L900 78L900 104L900 130L900 157L900 183L900 209L900 235L900 261L900 287L900 313L900 339L900 365L900 391L900 417L900 443L900 470L900 496L900 522L900 548L900 574L900 600Z" fill="#99996610"/>
  <path d="M453 600L540 600L540 574L536 574L536 548L559 548L559 522L510 522L510 496L481 496L481 470L452 470L452 443L502 443L502 417L464 417L464 391L514 391L514 365L547 365L547 339L464 339L464 313L551 313L551 287L545 287L545 261L490 261L490 235L463 235L463 209L530 209L530 183L487 183L487 157L470 157L470 130L519 130L519 104L455 104L455 78L495 78L495 52L549 52L549 26L503 26L503 0L900 0L900 26L900 52L900 78L900 104L900 130L900 157L900 183L900 209L900 235L900 261L900 287L900 313L900 339L900 365L900 391L900 417L900 443L900 470L900 496L900 522L900 548L900 574L900 600Z" fill="#7FBF8010"/>
  <path d="M570 600L606 600L606 574L570 574L570 548L601 548L601 522L562 522L562 496L530 496L530 470L540 470L540 443L611 443L611 417L624 417L624 391L579 391L579 365L550 365L550 339L616 339L616 313L579 313L579 287L592 287L592 261L564 261L564 235L550 235L550 209L596 209L596 183L551 183L551 157L535 157L535 130L626 130L626 104L520 104L520 78L628 78L628 52L537 52L537 26L548 26L548 0L900 0L900 26L900 52L900 78L900 104L900 130L900 157L900 183L900 209L900 235L900 261L900 287L900 313L900 339L900 365L900 391L900 417L900 443L900 470L900 496L900 522L900 548L900 574L900 600Z" fill="#66CC6610"/>
  <path d="M689 600L668 600L668 574L620 574L620 548L651 548L651 522L661 522L661 496L586 496L586 470L683 470L683 443L613 443L613 417L641 417L641 391L584 391L584 365L673 365L673 339L613 339L613 313L590 313L590 287L635 287L635 261L644 261L644 235L607 235L607 209L686 209L686 183L686 157L689 157L689 130L653 130L653 104L605 104L605 78L597 78L597 52L597 26L640 26L640 0L900 0L900 26L900 52L900 78L900 104L900 130L900 157L900 183L900 209L900 235L900 261L900 287L900 313L900 339L900 365L900 391L900 417L900 443L900 470L900 496L900 522L900 548L900 574L900 600Z" fill="#4DD94C10"/>
  <path d="M673 600L701 600L701 574L691 574L691 548L718 548L718 522L702 522L702 496L724 496L724 470L681 470L681 443L739 443L739 417L671 417L671 391L736 391L736 365L698 365L698 339L678 339L678 313L728 313L728 287L719 287L719 261L677 261L677 235L687 235L687 209L686 209L686 183L738 183L738 157L739 130L747 130L747 104L742 104L742 78L705 78L705 52L650 52L650 26L718 26L718 0L900 0L900 26L900 52L900 78L900 104L900 130L900 157L900 183L900 209L900 235L900 261L900 287L900 313L900 339L900 365L900 391L900 417L900 443L900 470L900 496L900 522L900 548L900 574L900 600Z" fill="#33E63310"/>
  <path d="M758 600L721 600L721 574L748 574L748 548L759 548L759 522L746 522L746 496L744 496L744 470L726 470L726 443L771 443L771 417L755 417L755 391L725 391L725 365L741 365L741 339L753 339L753 313L762 313L762 287L775 287L775 261L803 261L803 235L759 235L759 209L798 209L798 183L765 183L765 157L735 157L735 130L785 130L785 104L763 104L763 78L798 78L798 52L767 52L767 26L721 26L721 0L900 0L900 26L900 52L900 78L900 104L900 130L900 157L900 183L900 209L900 235L900 261L900 287L900 313L900 339L900 365L900 391L900 417L900 443L900 470L900 496L900 522L900 548L900 574L900 600Z" fill="#1AF31A10"/>
  <path d="M837 600L807 600L807 574L813 574L813 548L804 548L804 522L798 522L798 496L861 496L861 470L825 470L825 443L839 443L839 417L808 417L808 391L851 391L851 365L824 365L824 339L799 339L799 313L807 313L807 287L810 287L810 261L828 261L828 235L798 235L798 209L831 209L831 183L801 183L801 157L851 157L851 130L846 130L846 104L820 104L820 78L860 78L860 52L814 52L814 26L789 26L789 0L900 0L900 26L900 52L900 78L900 104L900 130L900 157L900 183L900 209L900 235L900 261L900 287L900 313L900 339L900 365L900 391L900 417L900 443L900 470L900 496L900 522L900 548L900 574L900 600Z" fill="#00FF0010"/>
</svg>
